<?xml version="1.0" standalone="no"?>
<!DOCTYPE svg PUBLIC "-//W3C//DTD SVG 20010904//EN"
 "http://www.w3.org/TR/2001/REC-SVG-20010904/DTD/svg10.dtd">
<svg version="1.0" xmlns="http://www.w3.org/2000/svg"
 width="300.000000pt" height="300.000000pt" viewBox="0 0 300.000000 300.000000"
 preserveAspectRatio="xMidYMid meet">
<metadata>
Created by potrace 1.11, written by Peter Selinger 2001-2013
</metadata>
<g transform="translate(0.000000,300.000000) scale(0.100000,-0.100000)"
fill="#000000" stroke="none">
<path d="M1347 2495 c-155 -53 -277 -234 -273 -407 1 -36 7 -72 14 -80 9 -12
3 -24 -34 -64 -41 -45 -123 -170 -128 -198 -2 -6 -9 -24 -15 -41 -73 -175 -71
-465 4 -616 40 -79 99 -143 159 -175 50 -26 56 -32 56 -61 0 -17 4 -34 10 -38
5 -3 6 -14 2 -25 -4 -10 -5 -53 -2 -95 5 -82 5 -83 -53 -132 -14 -11 -51 -27
-84 -33 -81 -17 -179 -58 -238 -99 -42 -30 -127 -111 -180 -171 -18 -21 -81
-159 -89 -195 -4 -16 -9 -38 -12 -48 -5 -16 55 -17 1198 -15 l1203 3 -2 40
c-1 42 -12 160 -17 185 -1 8 -6 35 -10 60 -11 69 -12 73 -24 103 -7 16 -12 33
-12 38 0 20 -41 89 -70 119 -17 17 -56 43 -87 57 -48 22 -73 27 -172 29 -64 2
-134 -1 -155 -6 -38 -8 -42 -7 -81 33 -63 65 -126 92 -265 112 -56 9 -276 9
-290 0 -5 -3 -10 -3 -11 2 -11 83 -6 139 10 128 5 -3 11 -2 13 2 1 5 32 23 68
42 98 52 207 146 255 222 13 19 28 60 34 90 6 29 14 65 17 79 13 55 11 298 -2
375 -16 97 -34 167 -45 180 -5 5 -9 15 -9 23 0 8 -14 34 -30 59 -16 24 -30 46
-30 49 0 9 -54 56 -90 78 -19 13 -57 28 -85 36 -27 7 -54 15 -59 18 -5 3 -25
7 -45 9 -20 1 -45 4 -56 5 -18 2 -20 10 -21 83 -2 113 -39 187 -115 225 -48
25 -107 31 -152 15z"/>
</g>
</svg>
